cyclingleg_probed_states
version=1
nRows=9
nColumns=49
inDegrees=yes

# SIMM Motion File Header:
name cyclingleg_probed_states
datacolumns 49
datarows 9
otherdata 1
range 0.48270909 0.48478388
endheader
time	/jointset/bb/crank_angle/value	/jointset/bb/crank_angle/speed	/jointset/spindle/pedal_angle_r/value	/jointset/spindle/pedal_angle_r/speed	/jointset/ground_pelvis/pelvis_tilt/value	/jointset/ground_pelvis/pelvis_tilt/speed	/jointset/ground_pelvis/pelvis_list/value	/jointset/ground_pelvis/pelvis_list/speed	/jointset/ground_pelvis/pelvis_rotation/value	/jointset/ground_pelvis/pelvis_rotation/speed	/jointset/ground_pelvis/pelvis_tx/value	/jointset/ground_pelvis/pelvis_tx/speed	/jointset/ground_pelvis/pelvis_ty/value	/jointset/ground_pelvis/pelvis_ty/speed	/jointset/ground_pelvis/pelvis_tz/value	/jointset/ground_pelvis/pelvis_tz/speed	/jointset/hip_r/hip_angle_r/value	/jointset/hip_r/hip_angle_r/speed	/jointset/hip_r/hip_adduction_r/value	/jointset/hip_r/hip_adduction_r/speed	/jointset/hip_r/hip_rotation_r/value	/jointset/hip_r/hip_rotation_r/speed	/jointset/knee_r/knee_angle_r/value	/jointset/knee_r/knee_angle_r/speed	/jointset/knee_r/tib_tx_r/value	/jointset/knee_r/tib_tx_r/speed	/jointset/knee_r/tib_ty_r/value	/jointset/knee_r/tib_ty_r/speed	/jointset/tib_pat_r/pat_angle_r/value	/jointset/tib_pat_r/pat_angle_r/speed	/jointset/tib_pat_r/pat_tx_r/value	/jointset/tib_pat_r/pat_tx_r/speed	/jointset/tib_pat_r/pat_ty_r/value	/jointset/tib_pat_r/pat_ty_r/speed	/jointset/ankle_r/ankle_angle_r/value	/jointset/ankle_r/ankle_angle_r/speed	/jointset/subtalar_r/subtalar_angle_r/value	/jointset/subtalar_r/subtalar_angle_r/speed	/jointset/mtp_r/mtp_angle_r/value	/jointset/mtp_r/mtp_angle_r/speed	/forceset/bifemlh_r/activation	/forceset/bifemlh_r/fiber_length	/forceset/bifemsh_r/activation	/forceset/bifemsh_r/fiber_length	/forceset/glut_max2_r/activation	/forceset/glut_max2_r/fiber_length	/forceset/vas_int_r/activation	/forceset/vas_int_r/fiber_length
      0.48270909	   -245.61801220	   -785.68810938	    228.71472633	    560.23406350	     -0.00000000	     -0.00000000	      0.00000000	      0.00000000	     -0.00000000	      0.00000000	     -0.10000000	      0.00000000	     -0.05000000	     -0.00000000	     -0.00000000	      0.00000000	     48.25557410	    196.01316388	      4.31217235	     -2.55718453	     -1.33425664	    -35.55132914	    -86.99553962	   -459.70217239	      0.00419856	     -0.05222866	     -0.48489507	     -0.15906622	     17.55755392	      1.23689591	      0.03389232	     -0.17083861	     -0.02259971	     -0.01342395	     22.34189759	     40.32418037	     -0.00000000	     -0.00000000	      0.00000000	      0.00000000	     -0.03670667	      0.11284534	     -0.03670667	      0.15303764	     -0.03670667	      0.13620778	     -0.03670667	      0.14641096
      0.48296379	   -245.81796303	   -784.39103355	    228.85741364	    560.19291893	     -0.00000000	     -0.00000000	      0.00000000	      0.00000000	     -0.00000000	      0.00000000	     -0.10000000	      0.00000000	     -0.05000000	     -0.00000000	     -0.00000000	      0.00000000	     48.30549866	    196.01046960	      4.31152033	     -2.56262897	     -1.34330353	    -35.48781356	    -87.11249407	   -458.66215359	      0.00418522	     -0.05248935	     -0.48493554	     -0.15872694	     17.55787043	      1.24845500	      0.03384883	     -0.17064064	     -0.02260314	     -0.01354368	     22.35219627	     40.54413015	     -0.00000000	     -0.00000000	      0.00000000	      0.00000000	     -0.03673946	      0.11284905	     -0.03673946	      0.15298990	     -0.03673946	      0.13624307	     -0.03673946	      0.14653150
      0.48321849	   -246.01758495	   -783.10624939	    229.00009126	    560.15858068	     -0.00000000	     -0.00000000	      0.00000000	      0.00000000	     -0.00000000	      0.00000000	     -0.10000000	      0.00000000	     -0.05000000	     -0.00000000	     -0.00000000	      0.00000000	     48.35542269	    196.00926902	      4.31086694	     -2.56802587	     -1.35233431	    -35.42484223	    -87.22918432	   -457.62797800	      0.00417182	     -0.05274853	     -0.48497593	     -0.15838903	     17.55818986	      1.25978268	      0.03380539	     -0.17044386	     -0.02260661	     -0.01366141	     22.36255083	     40.76294195	     -0.00000000	     -0.00000000	      0.00000000	      0.00000000	     -0.03677225	      0.11285304	     -0.03677225	      0.15294237	     -0.03677225	      0.13627835	     -0.03677225	      0.14655077
      0.48347939	   -246.22172347	   -781.78789240	    229.14623024	    560.11970340	     -0.00000000	     -0.00000000	      0.00000000	      0.00000000	     -0.00000000	      0.00000000	     -0.10000000	      0.00000000	     -0.05000000	     -0.00000000	     -0.00000000	      0.00000000	     48.40656061	    196.00583261	      4.31019624	     -2.57345590	     -1.36156813	    -35.36022106	    -87.34843982	   -456.56591457	      0.00415802	     -0.05301146	     -0.48501721	     -0.15804129	     17.55852002	      1.27112450	      0.03376095	     -0.17024025	     -0.02261019	     -0.01377972	     22.37321480	     40.98512598	     -0.00000000	     -0.00000000	      0.00000000	      0.00000000	     -0.03680584	      0.11285743	     -0.03680584	      0.15289392	     -0.03680584	      0.13631447	     -0.03680584	      0.14663133
      0.48374029	   -246.42551858	   -780.46972988	    229.29235918	    560.07887467	     -0.00000000	     -0.00000000	      0.00000000	      0.00000000	     -0.00000000	      0.00000000	     -0.10000000	      0.00000000	     -0.05000000	     -0.00000000	     -0.00000000	      0.00000000	     48.45769756	    196.00080137	      4.30952413	     -2.57879508	     -1.37078512	    -35.29559471	    -87.46741837	   -455.50259837	      0.00414416	     -0.05327196	     -0.48505839	     -0.15769245	     17.55885311	      1.28220812	      0.03371656	     -0.17003512	     -0.02261380	     -0.01389575	     22.38393653	     41.20547027	     -0.00000000	     -0.00000000	      0.00000000	      0.00000000	     -0.03683943	      0.11286213	     -0.03683943	      0.15284569	     -0.03683943	      0.13635057	     -0.03683943	      0.14668374
      0.48400119	   -246.62896957	   -779.15269108	    229.43847705	    560.03674067	     -0.00000000	     -0.00000000	      0.00000000	      0.00000000	     -0.00000000	      0.00000000	     -0.10000000	      0.00000000	     -0.05000000	     -0.00000000	     -0.00000000	      0.00000000	     48.50883294	    195.99441105	      4.30885064	     -2.58404664	     -1.37998523	    -35.23100450	    -87.58611920	   -454.43859691	      0.00413022	     -0.05353009	     -0.48509949	     -0.15734273	     17.55918905	      1.29303734	      0.03367223	     -0.16982869	     -0.02261744	     -0.01400956	     22.39471550	     41.42402612	     -0.00000000	     -0.00000000	      0.00000000	      0.00000000	     -0.03687302	      0.11286717	     -0.03687302	      0.15279769	     -0.03687302	      0.13638665	     -0.03687302	      0.14676010
      0.48426209	   -246.83207726	   -777.83822059	    229.58458388	    559.99432976	     -0.00000000	     -0.00000000	      0.00000000	      0.00000000	     -0.00000000	      0.00000000	     -0.10000000	      0.00000000	     -0.05000000	     -0.00000000	     -0.00000000	      0.00000000	     48.55996650	    195.98703111	      4.30817579	     -2.58921565	     -1.38916851	    -35.16651498	    -87.70454246	   -453.37477432	      0.00411623	     -0.05378597	     -0.48514049	     -0.15699241	     17.55952779	      1.30361700	      0.03362795	     -0.16962129	     -0.02262111	     -0.01412118	     22.40555126	     41.64087591	     -0.00000000	     -0.00000000	      0.00000000	      0.00000000	     -0.03690662	      0.11287256	     -0.03690662	      0.15274992	     -0.03690662	      0.13642271	     -0.03690662	      0.14682990
      0.48452298	   -247.03484228	   -776.52448247	    229.73067955	    559.95031063	     -0.00000000	     -0.00000000	      0.00000000	      0.00000000	     -0.00000000	      0.00000000	     -0.10000000	      0.00000000	     -0.05000000	     -0.00000000	     -0.00000000	      0.00000000	     48.61109800	    195.97820512	      4.30749961	     -2.59429627	     -1.39833497	    -35.10204238	    -87.82268814	   -452.31008173	      0.00410216	     -0.05403946	     -0.48518141	     -0.15664115	     17.55986925	      1.31394645	      0.03358372	     -0.16941250	     -0.02262481	     -0.01423060	     22.41644337	     41.85592700	     -0.00000000	     -0.00000000	      0.00000000	      0.00000000	     -0.03694021	      0.11287831	     -0.03694021	      0.15270238	     -0.03694021	      0.13645876	     -0.03694021	      0.14689159
      0.48478388	   -247.23726453	   -775.21274864	    229.87676345	    559.90558515	     -0.00000000	     -0.00000000	      0.00000000	      0.00000000	     -0.00000000	      0.00000000	     -0.10000000	      0.00000000	     -0.05000000	     -0.00000000	     -0.00000000	      0.00000000	     48.66222698	    195.96825805	      4.30682211	     -2.59929297	     -1.40748461	    -35.03764346	    -87.94055588	   -451.24528296	      0.00408803	     -0.05429065	     -0.48522223	     -0.15628922	     17.56021338	      1.32403016	      0.03353955	     -0.16920263	     -0.02262853	     -0.01433786	     22.42739135	     42.06925173	     -0.00000000	     -0.00000000	      0.00000000	      0.00000000	     -0.03697380	      0.11288445	     -0.03697380	      0.15265507	     -0.03697380	      0.13649479	     -0.03697380	      0.14696655
